<?xml version="1.0" standalone="no"?>
<!DOCTYPE svg PUBLIC "-//W3C//DTD SVG 20010904//EN"
 "http://www.w3.org/TR/2001/REC-SVG-20010904/DTD/svg10.dtd">
<svg version="1.0" xmlns="http://www.w3.org/2000/svg"
 width="1300.000000pt" height="1300.000000pt" viewBox="0 0 1300.000000 1300.000000"
 preserveAspectRatio="xMidYMid meet">

<g transform="translate(0.000000,1300.000000) scale(0.100000,-0.100000)"
fill="#000000" stroke="none">
<path d="M6714 12360 c-100 -15 -152 -74 -122 -137 20 -41 53 -53 154 -53 113
0 271 -26 304 -49 40 -28 88 -118 106 -198 19 -87 17 -274 -4 -281 -7 -2 -12
-19 -12 -37 0 -48 46 -95 95 -95 76 0 112 40 136 151 11 53 7 228 -8 293 l-6
29 64 -44 c35 -24 90 -70 123 -103 59 -59 146 -183 146 -208 0 -25 40 -77 79
-103 37 -25 105 -36 129 -21 21 13 221 47 307 53 124 8 254 -10 420 -58 214
-62 364 -125 524 -221 121 -72 448 -292 496 -332 l40 -34 -57 -59 c-88 -93
-111 -167 -129 -422 -12 -179 -2 -288 38 -416 101 -319 293 -512 658 -660 293
-118 593 -125 650 -15 9 17 21 30 27 30 6 0 42 14 79 31 l69 32 42 -35 c397
-326 787 -1034 968 -1758 103 -409 148 -784 157 -1295 7 -468 -19 -825 -91
-1245 -13 -77 -21 -151 -18 -165 12 -43 144 -177 216 -219 36 -21 66 -41 66
-43 0 -19 -162 43 -172 65 -1 4 -16 17 -33 28 -37 26 -81 22 -111 -9 -21 -22
-64 -141 -64 -178 0 -25 -90 -438 -125 -574 -42 -164 -132 -440 -193 -595 -56
-144 -57 -145 -55 -245 2 -116 24 -198 73 -275 106 -164 357 -282 508 -238 28
9 54 12 57 8 3 -4 -7 -43 -21 -86 -59 -173 -82 -207 -176 -255 -62 -31 -78
-51 -78 -98 0 -45 19 -78 55 -96 42 -19 53 -19 117 5 61 23 139 83 181 141 91
124 171 472 137 594 -18 64 -76 108 -125 95 -5 -2 -14 -4 -20 -5 -22 -4 -52
-20 -103 -54 -74 -49 -141 -54 -218 -16 -73 36 -116 80 -152 157 -55 117 -54
129 33 353 102 265 266 867 290 1068 7 54 9 58 29 53 122 -33 178 -39 248 -26
78 14 114 40 120 88 3 26 4 27 88 27 95 0 128 14 154 66 13 26 13 35 0 74 -13
36 -21 45 -47 51 -18 4 -36 7 -42 5 -63 -17 -223 25 -310 82 -54 34 -115 93
-115 109 0 7 9 63 20 123 69 373 101 905 82 1348 -22 505 -48 709 -152 1202
-5 22 -20 81 -35 130 -183 637 -516 1268 -854 1617 l-93 97 40 138 c22 76 50
170 62 208 102 333 124 480 109 727 -34 562 -229 1024 -554 1316 -110 99 -217
152 -309 152 -53 0 -138 -36 -172 -72 -68 -73 -82 -116 -123 -393 -23 -152
-29 -170 -66 -208 -30 -29 -409 -317 -418 -317 -3 0 -27 19 -54 42 -26 23 -86
66 -133 96 -47 30 -112 73 -145 95 -174 116 -466 271 -640 340 -340 133 -587
157 -941 91 -30 -6 -34 -3 -69 58 -49 83 -123 175 -188 234 -72 66 -246 180
-342 224 -192 90 -457 143 -601 120z"/>
<path d="M5700 12060 c-871 -62 -1874 -428 -2529 -922 -35 -26 -69 -48 -75
-48 -21 0 -113 89 -147 142 l-34 53 0 175 0 175 -33 67 c-60 122 -154 171
-291 149 -85 -13 -151 -43 -236 -108 -165 -127 -261 -247 -374 -470 -68 -134
-115 -260 -136 -364 -21 -101 -25 -344 -6 -464 26 -172 83 -382 152 -559 21
-55 39 -108 39 -119 0 -10 -14 -30 -30 -44 -47 -39 -197 -216 -291 -343 -239
-322 -477 -722 -580 -973 -20 -50 -38 -71 -121 -144 -371 -323 -619 -694 -644
-964 -7 -68 -7 -68 29 -104 72 -72 167 -21 167 91 0 39 69 208 116 287 84 138
161 236 290 369 214 220 423 377 660 496 99 50 119 71 119 127 0 57 -30 86
-94 93 -39 3 -58 -2 -123 -36 -43 -22 -78 -36 -78 -31 0 28 220 382 359 579
89 126 245 321 296 370 35 34 37 34 47 15 26 -48 128 -134 199 -168 131 -62
163 -70 289 -70 460 0 861 318 972 770 42 173 23 432 -42 578 -51 114 -107
158 -183 144 -25 -4 -46 -4 -52 2 -5 5 -10 34 -10 64 -1 37 -7 61 -19 74 -17
19 -15 21 56 73 175 129 319 213 583 343 529 259 1082 420 1657 481 211 22
575 15 734 -15 226 -42 383 -109 500 -212 36 -32 78 -61 94 -64 35 -8 95 16
109 43 33 62 -4 134 -110 212 -170 126 -394 204 -687 240 -120 14 -409 20
-542 10z"/>
<path d="M6718 10904 c-33 -17 -48 -43 -48 -81 1 -39 15 -62 86 -135 33 -35
72 -81 86 -103 37 -58 62 -77 111 -82 31 -4 54 0 83 15 68 34 208 80 315 102
137 28 155 36 172 73 20 43 16 72 -17 113 -24 31 -32 34 -79 34 -61 0 -261
-47 -360 -84 l-67 -26 -80 78 c-80 77 -131 112 -160 112 -8 -1 -27 -7 -42 -16z"/>
<path d="M6507 10315 c-161 -22 -403 -103 -588 -195 -86 -44 -234 -142 -359
-238 -169 -131 -432 -416 -546 -592 -50 -78 -131 -237 -135 -265 -11 -86 49
-127 144 -99 10 3 44 62 86 147 81 167 157 286 268 417 209 249 463 436 705
520 212 73 471 130 593 130 60 0 95 14 121 49 16 20 0 82 -26 103 -48 39 -105
44 -263 23z"/>
<path d="M10530 8441 c0 -6 -6 -11 -14 -11 -11 0 -26 -40 -26 -72 0 -5 48 -57
108 -116 262 -263 469 -636 643 -1162 98 -296 123 -400 158 -660 34 -253 41
-314 41 -368 0 -92 33 -142 95 -142 90 0 118 95 90 310 -39 300 -73 477 -128
660 -39 128 -149 444 -189 540 -180 430 -419 783 -675 995 -35 28 -103 46
-103 26z"/>
<path d="M1135 7761 c-184 -66 -375 -206 -375 -274 0 -27 37 -75 72 -93 39
-20 64 -11 148 52 75 56 102 70 220 116 101 39 130 65 130 120 0 30 -7 46 -29
69 -35 35 -87 38 -166 10z"/>
<path d="M4655 7645 c-27 -28 -35 -45 -41 -92 -11 -88 12 -331 47 -493 48
-224 48 -241 0 -414 -32 -113 -80 -257 -95 -283 -1 -1 -49 -11 -106 -23 -121
-24 -235 -64 -274 -95 -17 -14 -28 -34 -31 -57 -5 -40 7 -58 54 -82 27 -14 71
-10 210 20 45 9 43 5 -61 -149 -143 -212 -391 -437 -480 -437 -24 0 -27 5 -32
43 -32 280 -46 336 -84 355 -25 13 -104 4 -122 -13 -19 -20 -20 -121 -1 -268
13 -104 10 -140 -10 -104 -6 9 -23 24 -39 32 -24 12 -35 13 -67 2 -31 -10 -43
-21 -65 -67 -16 -30 -39 -98 -52 -150 -81 -321 -78 -717 9 -1125 44 -205 77
-315 140 -467 6 -16 1 -18 -36 -18 -69 1 -118 30 -198 118 -41 44 -85 85 -100
91 -14 5 -71 12 -126 15 -328 18 -596 197 -760 509 -75 143 -90 203 -89 347 1
90 7 149 23 213 28 117 98 357 116 401 20 48 19 72 -7 106 -17 24 -29 30 -59
30 -52 0 -66 -7 -89 -45 -14 -23 -48 -49 -106 -80 -244 -133 -461 -368 -603
-652 -69 -138 -96 -230 -137 -458 l-7 -40 -8 30 c-5 17 -36 138 -68 270 -33
132 -69 274 -81 315 -190 701 -228 1039 -186 1680 19 292 47 456 108 636 34
98 33 129 -4 164 -18 16 -31 19 -71 15 -58 -5 -75 -18 -105 -77 -47 -96 -110
-401 -128 -623 -22 -262 -26 -739 -8 -895 28 -251 87 -554 159 -820 62 -228
165 -642 179 -719 18 -96 21 -231 5 -317 -59 -332 -289 -668 -493 -721 -61
-16 -86 -10 -143 34 -81 62 -151 52 -172 -24 -22 -80 59 -169 189 -208 46 -14
62 -25 95 -67 49 -62 133 -123 199 -143 70 -21 181 -19 257 5 40 12 67 16 73
10 15 -15 -7 -289 -24 -300 -22 -13 -154 -25 -258 -22 -119 3 -210 23 -292 61
-75 36 -85 37 -128 15 -41 -20 -78 -85 -86 -149 -17 -130 79 -314 216 -419 47
-36 221 -126 243 -126 19 0 114 -70 247 -182 269 -226 351 -287 538 -400 360
-218 701 -337 1146 -402 417 -62 921 -28 1130 75 95 47 104 56 174 174 29 50
76 123 104 164 l50 73 22 -28 c13 -15 30 -46 39 -68 45 -108 54 -133 59 -157
17 -79 113 -111 174 -56 17 16 22 31 22 73 0 114 -125 362 -233 462 -31 29
-91 38 -134 20 -40 -17 -165 -181 -258 -337 -71 -119 -91 -137 -194 -166 -189
-54 -647 -68 -916 -27 -573 86 -972 262 -1438 632 -32 25 -117 94 -189 153
-193 159 -198 162 -403 247 -37 15 -106 76 -140 125 -43 60 -45 80 -8 71 71
-15 245 -36 312 -36 150 0 378 49 431 94 8 7 37 25 64 41 104 59 196 168 196
231 0 44 -48 85 -93 80 -18 -3 -35 -5 -39 -5 -4 -1 -34 -29 -67 -63 -33 -35
-63 -59 -67 -55 -4 4 -7 110 -7 235 1 247 -4 274 -54 308 -55 35 -131 -5 -151
-81 -7 -24 -19 -34 -68 -53 -88 -36 -158 -39 -214 -10 -24 13 -45 28 -47 33
-1 6 20 24 49 40 113 67 273 257 360 429 43 85 95 233 117 333 11 46 21 86 23
89 3 2 10 -42 16 -99 35 -300 157 -544 386 -772 210 -209 395 -330 656 -428
167 -62 395 -91 619 -77 86 5 183 17 216 25 33 9 94 25 135 36 41 10 111 33
155 50 151 58 137 57 197 12 217 -163 494 -304 788 -399 355 -116 584 -163
1044 -213 907 -101 1297 -99 1931 10 425 73 928 185 1150 256 89 29 327 133
452 198 187 97 311 185 446 314 l57 56 108 -57 c233 -123 504 -174 794 -150
229 19 401 65 555 148 374 202 641 599 730 1084 22 119 25 453 5 545 -66 301
-167 498 -358 695 -104 107 -109 116 -119 185 -10 66 -52 225 -84 312 -68 188
-124 255 -192 231 -17 -6 -28 -13 -24 -16 3 -3 -3 -14 -12 -24 -17 -19 -16
-24 14 -111 36 -103 53 -168 83 -313 41 -194 50 -271 51 -414 2 -440 -140
-734 -476 -988 -88 -66 -247 -145 -345 -172 -75 -20 -232 -50 -238 -45 -2 1
11 27 29 56 41 69 79 171 79 210 0 45 -36 79 -75 72 -16 -3 -35 -10 -42 -15
-6 -5 -39 -64 -72 -131 -62 -125 -128 -218 -229 -320 -56 -57 -89 -83 -98 -74
-2 2 19 53 47 113 121 254 180 527 194 884 14 339 -49 844 -136 1090 -16 47
-30 90 -29 95 0 6 3 35 6 65 5 47 3 59 -16 83 -13 16 -29 26 -36 23 -8 -3 -14
-1 -14 3 0 17 -60 4 -84 -18 -13 -12 -32 -44 -41 -69 -47 -124 -102 -200 -208
-285 -67 -54 -130 -88 -232 -126 -88 -33 -110 -49 -117 -85 -9 -46 33 -86 91
-86 145 0 321 83 462 217 38 37 48 42 58 30 22 -27 100 -504 86 -527 -4 -7
-17 0 -33 17 -23 25 -33 28 -86 28 -50 0 -69 -5 -104 -28 l-42 -27 -33 37
c-17 20 -68 63 -112 96 -194 145 -434 216 -694 204 -69 -3 -159 -13 -200 -21
-330 -72 -621 -256 -823 -523 -41 -54 -59 -82 -118 -188 -62 -110 -128 -337
-115 -396 14 -65 93 -101 141 -64 28 22 31 20 45 -37 26 -110 80 -204 174
-307 98 -105 210 -171 350 -205 39 -10 79 -24 91 -31 55 -35 205 -44 334 -19
517 98 811 624 636 1135 -47 138 -106 236 -209 345 -100 106 -98 110 30 69
467 -149 657 -657 424 -1131 -60 -120 -110 -190 -220 -307 -78 -81 -83 -90
-85 -133 -1 -34 4 -49 19 -63 67 -61 98 -51 220 73 336 342 450 791 304 1190
l-30 81 33 25 c18 13 50 42 71 63 21 22 41 36 45 32 4 -4 7 -118 6 -253 -1
-206 -5 -268 -23 -372 -30 -170 -72 -330 -112 -420 -89 -201 -214 -420 -276
-487 -34 -35 -43 -53 -43 -79 0 -47 35 -92 76 -100 45 -8 84 17 135 88 50 69
136 128 186 128 22 0 12 -20 -55 -113 -63 -88 -119 -153 -262 -300 -171 -177
-273 -249 -513 -359 -223 -102 -408 -163 -807 -263 -365 -92 -486 -115 -855
-162 -207 -26 -242 -28 -590 -27 -371 1 -600 14 -980 59 -605 71 -1069 204
-1437 411 -173 97 -410 283 -495 387 -32 39 -67 81 -79 93 -44 49 -184 328
-184 369 0 8 30 10 113 7 l112 -4 58 -63 c70 -78 141 -115 230 -122 57 -5 65
-3 95 22 56 47 41 117 -35 162 -66 39 -123 102 -192 213 -122 197 -151 288
-159 500 -5 142 -1 167 59 355 25 76 87 191 141 261 48 62 158 142 251 183 59
27 107 43 107 36 0 -2 -31 -34 -69 -72 -120 -120 -213 -287 -248 -447 -21 -92
-20 -269 1 -364 71 -322 319 -573 636 -643 105 -23 311 -28 411 -9 164 31 316
112 440 235 64 64 66 65 93 51 15 -7 36 -12 47 -9 43 12 108 111 143 221 15
44 21 52 42 52 34 0 70 26 89 62 13 28 13 37 0 89 -42 163 -98 287 -200 444
-69 106 -125 171 -246 282 -256 236 -542 362 -819 363 -277 0 -551 -95 -753
-263 -52 -43 -43 -45 -122 21 -21 18 -53 36 -70 41 -29 7 -30 10 -28 57 1 27
15 88 31 134 16 47 33 98 37 115 6 29 7 29 24 -21 24 -70 43 -98 84 -118 110
-52 316 36 502 213 156 150 309 354 405 541 19 36 38 68 43 71 5 4 59 10 119
14 96 6 112 5 129 -11 10 -9 19 -21 19 -27 0 -23 191 -325 283 -448 290 -385
507 -595 734 -710 180 -91 339 -89 479 6 21 14 179 165 350 336 298 296 339
331 358 300 11 -18 114 -70 171 -86 114 -34 174 -3 300 157 123 154 185 249
296 453 51 94 96 174 100 179 4 5 21 -1 38 -13 28 -20 40 -22 138 -18 100 3
251 -4 349 -18 l40 -6 32 -88 c86 -237 142 -458 149 -589 5 -88 8 -96 38 -127
20 -22 38 -33 51 -30 10 2 30 6 44 9 38 8 63 59 63 125 -1 114 -55 358 -128
574 -29 88 -31 101 -9 93 24 -9 101 29 109 54 10 33 -3 84 -28 108 -12 11 -58
30 -101 42 -44 12 -83 23 -88 26 -5 3 -19 27 -33 54 -40 79 -161 276 -266 433
-54 81 -99 155 -99 165 0 9 9 68 20 131 34 193 24 317 -29 382 -23 27 -34 32
-67 31 -62 -1 -80 -4 -67 -9 9 -3 10 -9 1 -23 -6 -10 -18 -16 -26 -12 -12 4
-14 -4 -7 -54 14 -103 10 -196 -14 -309 -82 -401 -216 -736 -459 -1150 -69
-118 -254 -370 -279 -379 -18 -7 -79 24 -156 78 -50 35 -66 41 -110 41 -43 0
-61 -6 -102 -34 -27 -19 -188 -171 -356 -338 -169 -168 -324 -316 -345 -331
-34 -24 -48 -27 -120 -27 -72 0 -87 4 -155 37 -111 56 -199 126 -349 277 -112
113 -190 204 -313 361 -101 129 -261 402 -270 462 -3 20 -23 61 -45 90 -113
152 -248 686 -275 1091 -15 211 -21 227 -92 233 -30 2 -42 -3 -70 -31z m3669
-909 c56 -57 176 -222 176 -243 0 -4 -88 -8 -195 -8 -107 0 -195 1 -195 3 0 2
9 22 19 45 34 74 68 161 86 215 9 30 23 52 31 52 8 0 43 -29 78 -64z m-6228
-1648 c-23 -116 -38 -284 -33 -380 5 -98 4 -108 -15 -125 -91 -81 -180 -253
-204 -393 -28 -163 0 -363 58 -417 35 -33 70 -38 92 -14 21 23 18 50 -10 121
-27 67 -25 212 5 310 32 107 111 230 147 230 7 0 29 -28 50 -62 91 -152 241
-317 347 -383 70 -44 107 -75 107 -91 0 -38 59 -134 120 -194 95 -96 219 -150
343 -150 63 0 93 11 119 44 23 28 22 58 -2 88 -15 20 -31 26 -82 31 -78 7
-189 41 -240 73 -50 32 -50 49 0 39 66 -13 166 -24 213 -25 36 0 51 -5 70 -26
13 -14 45 -42 72 -61 44 -33 47 -37 47 -81 0 -26 5 -65 11 -87 20 -72 109
-242 195 -372 46 -70 84 -133 84 -140 0 -17 -24 -29 -151 -74 -272 -97 -577
-115 -834 -49 -348 89 -702 361 -865 662 -90 167 -125 331 -124 578 0 330 61
507 260 766 62 80 197 214 216 214 6 0 8 -13 4 -32z m1493 -159 l33 -31 -33
-74 c-19 -40 -37 -73 -41 -74 -5 0 -8 47 -8 105 0 58 3 105 8 105 4 0 22 -14
41 -31z m7826 -16 c46 -62 117 -207 149 -303 97 -299 60 -681 -97 -995 -168
-336 -426 -530 -826 -621 -218 -50 -414 -43 -637 22 -134 38 -304 128 -304
160 0 8 20 41 44 72 68 90 172 263 212 357 29 66 41 84 53 80 129 -51 483 25
683 147 151 91 327 245 425 371 25 32 49 54 55 51 15 -10 3 -216 -17 -296 -9
-35 -23 -74 -32 -87 -37 -58 -5 -138 51 -127 65 13 104 85 131 243 19 110 19
201 -1 338 -22 147 -22 164 9 278 15 54 32 156 39 227 7 72 16 130 20 130 4 0
24 -21 43 -47z"/>
<path d="M2434 6810 c-21 -8 -44 -66 -44 -111 0 -13 -8 -63 -18 -110 -22 -100
-80 -220 -143 -295 -46 -54 -156 -141 -237 -187 -74 -41 -242 -96 -335 -109
-86 -12 -101 -19 -111 -55 -12 -37 24 -63 87 -63 66 0 237 39 348 80 227 82
415 257 507 473 20 46 51 179 58 248 8 77 -8 111 -58 128 -17 6 -31 11 -32 10
-1 0 -10 -4 -22 -9z"/>
<path d="M2138 5879 c-71 -50 -151 -79 -219 -79 -44 0 -55 -4 -80 -31 -16 -17
-29 -35 -29 -41 0 -20 50 -57 86 -64 89 -17 246 33 324 102 41 38 50 52 50 80
0 35 -31 74 -59 74 -9 0 -42 -18 -73 -41z"/>
<path d="M6651 3846 c-31 -33 -22 -81 20 -122 17 -16 49 -52 70 -81 47 -62 88
-76 138 -47 24 14 31 25 31 49 0 42 -44 109 -114 173 -67 61 -107 69 -145 28z"/>
<path d="M4994 3340 c-11 -4 -27 -22 -34 -39 -11 -28 -9 -39 21 -113 50 -126
92 -158 159 -123 38 20 48 67 25 121 -28 68 -78 144 -100 150 -42 12 -51 12
-71 4z"/>
<path d="M4744 3309 c-12 -14 -19 -36 -19 -63 0 -51 32 -136 51 -136 8 0 14
-4 14 -10 0 -5 15 -10 33 -10 26 0 36 7 55 36 21 32 22 40 13 85 -13 61 -35
105 -56 113 -33 12 -72 6 -91 -15z"/>
<path d="M8366 3285 c-34 -37 -21 -80 48 -160 63 -71 97 -86 144 -61 49 25 55
81 15 139 -67 97 -160 133 -207 82z"/>
<path d="M8152 3257 c-12 -13 -22 -35 -22 -49 0 -30 33 -107 68 -160 45 -68
133 -59 147 15 8 39 -38 143 -82 189 -34 36 -81 38 -111 5z"/>
<path d="M6469 3139 c-35 -13 -53 -50 -46 -94 12 -74 50 -88 205 -75 64 5 163
10 220 10 96 0 105 2 127 25 31 30 32 69 2 99 -21 21 -37 25 -118 30 -190 11
-365 14 -390 5z"/>
<path d="M11884 2121 c-94 -58 -52 -193 79 -251 26 -12 97 -28 159 -36 61 -8
113 -16 115 -18 7 -6 -97 -86 -195 -150 -240 -158 -561 -272 -987 -351 -111
-20 -157 -24 -220 -19 -273 21 -556 177 -880 485 -44 42 -90 82 -102 88 -51
26 -107 5 -131 -51 -22 -53 -5 -86 103 -191 69 -67 75 -76 75 -113 0 -49 33
-182 65 -264 13 -33 20 -62 15 -65 -5 -3 -46 -9 -92 -14 -122 -12 -160 -44
-162 -136 -1 -29 -6 -47 -16 -51 -30 -13 -270 -16 -352 -4 -45 6 -125 27 -177
46 -282 102 -314 109 -355 70 -55 -50 -42 -112 32 -161 47 -31 286 -119 396
-146 104 -25 325 -36 424 -20 158 25 232 68 256 150 13 45 14 45 78 62 128 32
218 101 218 167 0 17 -16 62 -36 100 -20 38 -35 74 -33 80 2 5 38 -10 79 -35
127 -75 250 -132 370 -171 109 -35 122 -37 240 -36 174 1 426 51 739 146 577
174 1014 530 906 738 -24 46 -52 60 -121 60 -88 0 -263 19 -304 33 -19 6 -53
26 -74 44 -45 38 -68 41 -112 14z"/>
<path d="M7119 1712 c-9 -4 -70 -45 -136 -91 -139 -97 -168 -113 -403 -232
-184 -92 -372 -170 -518 -215 -48 -14 -122 -40 -164 -56 l-78 -31 -39 27 c-21
15 -53 45 -71 67 -40 50 -72 64 -183 78 -194 25 -444 120 -638 242 -169 106
-193 119 -217 119 -62 0 -120 -75 -109 -142 3 -18 13 -76 22 -128 12 -69 15
-116 10 -170 -16 -162 -10 -177 74 -187 48 -5 55 -4 76 19 33 36 55 119 55
210 0 43 2 78 5 78 3 0 59 -27 125 -60 66 -33 155 -74 197 -91 83 -33 340 -99
385 -99 20 0 46 -17 93 -59 36 -33 86 -70 113 -82 64 -32 150 -31 224 3 29 14
94 37 143 52 94 29 285 97 345 123 172 74 508 251 617 324 l75 51 114 -120
c119 -125 230 -219 372 -316 225 -153 573 -276 778 -276 88 0 118 12 139 56 9
19 18 34 20 34 2 0 42 -24 87 -54 98 -64 190 -111 236 -121 35 -7 92 12 92 31
0 7 6 14 14 17 17 7 12 82 -6 105 -7 8 -36 25 -64 38 -90 40 -194 108 -372
245 -29 23 -104 100 -166 173 -62 72 -119 136 -127 142 -21 17 -59 24 -78 14
-9 -5 -24 -11 -34 -14 -36 -11 -48 -86 -21 -139 23 -44 129 -170 205 -243 35
-33 65 -65 66 -70 9 -34 -293 44 -451 116 -129 58 -342 206 -460 319 -75 71
-197 213 -213 247 -22 46 -95 82 -134 66z"/>
</g>
</svg>
